<?xml version="1.0" encoding="UTF-8"?>
<svg width="100" height="100" fill="#e5e7eb" version="1.0" viewBox="0 0 512 512" xmlns="http://www.w3.org/2000/svg">
<path d="M251 29.7c-28.3 1.5-42.7 2.7-52.2 4.4-43.7 7.7-79.7 26.1-109.9 55.9-50.7 50.2-75.2 124.8-63.4 193 14.1 81 75.3 152.1 152.9 177.5 55.2 18.1 110.9 10 156.2-22.6 31-22.3 60.2-60.6 67.5-88.4 10.5-40.2-8.3-76.1-44.8-85.6-9.9-2.6-27.4-2.8-38.8-.4-18 3.7-36.8 12-56 24.6-20.2 13.2-33.3 18.5-48.4 19.5-28.6 1.9-55.1-16.8-67.4-47.8-9.6-24-6.7-50.8 6.8-62.7 6.8-5.9 11-7.4 19.1-6.7 24 2 39.8 19 38.1 41-.3 4-1.2 8.9-2.1 10.9-.8 2-1.2 3.7-.9 3.7 1.4 0 11.4-8.2 13.7-11.3 6.9-9.1 8.7-20.6 4.7-30-3-6.9-11.9-15.8-19.6-19.6-3.6-1.8-6.5-3.5-6.5-3.8 0-1.1 15.2.8 21.4 2.7 12 3.7 23 13 28.7 24.1 1 2.1 2.7 6.8 3.7 10.6l1.9 6.7 2.4-5.9c3.5-9.1 3.3-21.9-.5-29.8-5.4-11.2-17-19.8-31.8-23.6-7.2-1.9-7.3-1.9-4.3-3.1 4.9-1.9 21.9-1.4 31 1 10.8 2.8 22.9 8.9 30 15.2l5.8 5.2-.7-3.9c-2.1-11.7-5.7-18.2-13.5-24.3-9.5-7.6-21.3-10.7-39.6-10.6-15.3.1-29.7 3-44.7 9-11.9 4.7-17 7.6-34.5 19.2-16.2 10.6-20.6 15.2-26.3 26.7-14.5 29.4-5.5 70.9 21.5 99.4 17.1 18 35.8 26.3 59.5 26.2 20.5 0 37.6-6 62.2-21.9 20.3-13.1 34.9-19.6 50.8-22.6 26.2-5 48.8 3.8 58.3 22.7 11.7 23.1 4.4 51-22 84.1-9.7 12.1-24.9 26.9-36.1 34.9-15.9 11.5-37.3 20.9-57.2 25.2-4.3.9-14.7 1.9-24.5 2.2-30 1-52.9-4.1-82-18.2-58.5-28.4-102.7-85.3-114.9-148-8.9-45.4-1-91.7 23.2-136 27.5-50.3 72.6-83.7 128.6-95 31.4-6.4 69.4-5.1 98.6 3.1 20.8 5.9 45.9 16.8 63.6 27.5 20 12 43.5 32.4 57.7 49.9 21.2 26.2 35.3 58.1 39.2 88.8l.7 5.3 3.6-.8c7.5-1.6 20.4-.8 25.6 1.5 2.7 1.2 5.1 2.2 5.4 2.2.8 0-.7-13.5-2.4-21.9-13.2-64.8-59.8-123.5-122.8-154.5-28.5-14-60.2-22.6-89.1-24.1-5.5-.3-12.2-.7-15-.8-2.7-.2-7.5-.2-10.5 0z" />
<path d="m461 246.6c-10.4 4.5-16.9 17.5-14.1 28.1l1.1 4.1 8.3-0.1c9.4 0 16.8 2.2 24 7.2l4.5 3.1 3.6-4c4.4-4.9 7.1-13.3 6.1-19.3-1.4-8.4-7.3-16.1-14.7-19.1-4.7-2-14.2-2-18.8 0zm-9.7 51.8c-4.1 1.9-4.6 3.1-7.1 19.2-6.7 42.1-31.6 85.1-76.6 132-10.5 11-11.6 12.5-11.6 15.8 0 10.2 11.9 20.8 28.1 25.1 9.7 2.6 10.3 2.4 15.6-5.8 17.2-26.7 52.1-93.2 65.5-124.8 15.7-36.9 17.1-46.2 8.4-55.7-5.1-5.7-16.2-8.6-22.3-5.8z" />
</svg>
